<mxfile host="app.diagrams.net" modified="2023-09-13T12:55:37.599Z" agent="Mozilla/5.0 (Macintosh; Intel Mac OS X 10.15; rv:109.0) Gecko/20100101 Firefox/115.0" etag="hzpFRxeU2DBr7SQV3dGU" version="21.6.9" type="device" pages="3">
  <diagram id="8QoGL5_KE23dWj9nmXSr" name="adsf-data-lake">
    <mxGraphModel dx="1710" dy="-2157" grid="1" gridSize="10" guides="1" tooltips="1" connect="1" arrows="1" fold="1" page="1" pageScale="1" pageWidth="850" pageHeight="1100" math="0" shadow="0">
      <root>
        <mxCell id="0" />
        <mxCell id="1" parent="0" />
        <mxCell id="kRMHfiHr7dQ66X-y3se4-2" value="" style="rounded=0;whiteSpace=wrap;html=1;labelBackgroundColor=none;labelBorderColor=none;strokeColor=#00994D;strokeWidth=2;fontSize=12;fontColor=#000000;fillColor=none;verticalAlign=top;" vertex="1" parent="1">
          <mxGeometry x="201" y="3430" width="390" height="240" as="geometry" />
        </mxCell>
        <mxCell id="kRMHfiHr7dQ66X-y3se4-39" value="" style="rounded=0;whiteSpace=wrap;html=1;dashed=1;strokeColor=none;fillColor=#fff2cc;" vertex="1" parent="1">
          <mxGeometry x="210" y="3626" width="371" height="40" as="geometry" />
        </mxCell>
        <mxCell id="kRMHfiHr7dQ66X-y3se4-8" value="Bucket (Level 2 construct)" style="rounded=0;whiteSpace=wrap;html=1;fillColor=#dae8fc;strokeColor=#6c8ebf;fontSize=14;dashed=1;strokeWidth=2;" vertex="1" parent="1">
          <mxGeometry x="201" y="3820" width="390" height="60" as="geometry" />
        </mxCell>
        <mxCell id="kRMHfiHr7dQ66X-y3se4-9" value="CfnBucket (Level 1 construct)" style="rounded=0;whiteSpace=wrap;html=1;fillColor=#fad9d5;strokeColor=#ae4132;fontSize=14;dashed=1;strokeWidth=2;" vertex="1" parent="1">
          <mxGeometry x="200" y="3890" width="391" height="60" as="geometry" />
        </mxCell>
        <mxCell id="kRMHfiHr7dQ66X-y3se4-10" value="" style="rounded=0;whiteSpace=wrap;html=1;labelPosition=center;verticalLabelPosition=middle;align=center;verticalAlign=middle;horizontal=1;spacingBottom=34;strokeWidth=2;" vertex="1" parent="1">
          <mxGeometry x="201" y="3680" width="190" height="130" as="geometry" />
        </mxCell>
        <mxCell id="kRMHfiHr7dQ66X-y3se4-27" style="edgeStyle=orthogonalEdgeStyle;rounded=0;orthogonalLoop=1;jettySize=auto;html=1;exitX=1;exitY=0.5;exitDx=0;exitDy=0;" edge="1" parent="1" source="kRMHfiHr7dQ66X-y3se4-3" target="kRMHfiHr7dQ66X-y3se4-26">
          <mxGeometry relative="1" as="geometry" />
        </mxCell>
        <mxCell id="kRMHfiHr7dQ66X-y3se4-3" value="" style="rounded=0;whiteSpace=wrap;html=1;dashed=1;fontColor=#000000;strokeColor=none;fillColor=#E6E6E6;" vertex="1" parent="1">
          <mxGeometry x="210" y="3460" width="261" height="110" as="geometry" />
        </mxCell>
        <mxCell id="kRMHfiHr7dQ66X-y3se4-4" value="bronze" style="sketch=0;outlineConnect=0;fontColor=#232F3E;gradientColor=none;fillColor=#3F8624;strokeColor=none;dashed=0;verticalLabelPosition=bottom;verticalAlign=top;align=center;html=1;fontSize=12;fontStyle=0;aspect=fixed;pointerEvents=1;shape=mxgraph.aws4.bucket;" vertex="1" parent="1">
          <mxGeometry x="221" y="3477" width="61.5" height="64" as="geometry" />
        </mxCell>
        <mxCell id="kRMHfiHr7dQ66X-y3se4-5" value="silver" style="sketch=0;outlineConnect=0;fontColor=#232F3E;gradientColor=none;fillColor=#3F8624;strokeColor=none;dashed=0;verticalLabelPosition=bottom;verticalAlign=top;align=center;html=1;fontSize=12;fontStyle=0;aspect=fixed;pointerEvents=1;shape=mxgraph.aws4.bucket;" vertex="1" parent="1">
          <mxGeometry x="305.36" y="3477" width="61.5" height="64" as="geometry" />
        </mxCell>
        <mxCell id="kRMHfiHr7dQ66X-y3se4-6" value="&lt;div&gt;Encryption&lt;/div&gt;&lt;div&gt;key&lt;br&gt;&lt;/div&gt;" style="sketch=0;outlineConnect=0;fontColor=#232F3E;gradientColor=none;fillColor=#BF0816;strokeColor=none;dashed=0;verticalLabelPosition=middle;verticalAlign=middle;align=left;html=1;fontSize=12;fontStyle=0;aspect=fixed;pointerEvents=1;shape=mxgraph.aws4.data_encryption_key;rounded=1;labelBackgroundColor=none;labelBorderColor=none;strokeWidth=2;labelPosition=right;spacingLeft=4;" vertex="1" parent="1">
          <mxGeometry x="210" y="3585" width="20" height="25.22" as="geometry" />
        </mxCell>
        <mxCell id="kRMHfiHr7dQ66X-y3se4-11" value="" style="sketch=0;outlineConnect=0;fontColor=#232F3E;gradientColor=none;fillColor=#3F8624;strokeColor=none;dashed=0;verticalLabelPosition=bottom;verticalAlign=top;align=center;html=1;fontSize=12;fontStyle=0;aspect=fixed;pointerEvents=1;shape=mxgraph.aws4.bucket;" vertex="1" parent="1">
          <mxGeometry x="210" y="3724.58" width="61.5" height="64" as="geometry" />
        </mxCell>
        <mxCell id="kRMHfiHr7dQ66X-y3se4-13" value="&lt;div&gt;Enforced SSL&lt;/div&gt;" style="sketch=0;outlineConnect=0;fontColor=#232F3E;gradientColor=none;strokeColor=#232F3E;fillColor=#ffffff;dashed=0;verticalLabelPosition=middle;verticalAlign=middle;align=left;html=1;fontSize=12;fontStyle=0;aspect=fixed;shape=mxgraph.aws4.resourceIcon;resIcon=mxgraph.aws4.ssl_padlock;labelPosition=right;spacingLeft=0;" vertex="1" parent="1">
          <mxGeometry x="275.00000000000006" y="3710" width="30" height="30" as="geometry" />
        </mxCell>
        <mxCell id="kRMHfiHr7dQ66X-y3se4-14" value="&lt;div&gt;Enforce KMS&lt;/div&gt;&lt;div&gt;encryption&lt;br&gt;&lt;/div&gt;" style="sketch=0;outlineConnect=0;fontColor=#232F3E;gradientColor=none;fillColor=#BF0816;strokeColor=none;dashed=0;verticalLabelPosition=middle;verticalAlign=middle;align=left;html=1;fontSize=12;fontStyle=0;aspect=fixed;pointerEvents=1;shape=mxgraph.aws4.data_encryption_key;labelPosition=right;spacingRight=4;spacingLeft=5;" vertex="1" parent="1">
          <mxGeometry x="280" y="3744" width="20" height="25.16" as="geometry" />
        </mxCell>
        <mxCell id="kRMHfiHr7dQ66X-y3se4-16" value="AnalyticsBucket" style="text;html=1;strokeColor=none;fillColor=none;align=center;verticalAlign=middle;whiteSpace=wrap;rounded=0;fontStyle=1" vertex="1" parent="1">
          <mxGeometry x="216" y="3680" width="160" height="30" as="geometry" />
        </mxCell>
        <mxCell id="kRMHfiHr7dQ66X-y3se4-17" value="" style="rounded=0;whiteSpace=wrap;html=1;labelPosition=center;verticalLabelPosition=middle;align=center;verticalAlign=middle;horizontal=1;spacingBottom=34;strokeWidth=2;" vertex="1" parent="1">
          <mxGeometry x="401" y="3680" width="190" height="130" as="geometry" />
        </mxCell>
        <mxCell id="kRMHfiHr7dQ66X-y3se4-18" value="" style="sketch=0;outlineConnect=0;fontColor=#232F3E;gradientColor=none;fillColor=#CC0000;strokeColor=none;dashed=0;verticalLabelPosition=bottom;verticalAlign=top;align=center;html=1;fontSize=12;fontStyle=0;aspect=fixed;pointerEvents=1;shape=mxgraph.aws4.bucket;" vertex="1" parent="1">
          <mxGeometry x="410" y="3724.58" width="61.5" height="64" as="geometry" />
        </mxCell>
        <mxCell id="kRMHfiHr7dQ66X-y3se4-19" value="&lt;div&gt;Enforced SSL&lt;/div&gt;" style="sketch=0;outlineConnect=0;fontColor=#232F3E;gradientColor=none;strokeColor=#232F3E;fillColor=#ffffff;dashed=0;verticalLabelPosition=middle;verticalAlign=middle;align=left;html=1;fontSize=12;fontStyle=0;aspect=fixed;shape=mxgraph.aws4.resourceIcon;resIcon=mxgraph.aws4.ssl_padlock;labelPosition=right;spacingLeft=0;" vertex="1" parent="1">
          <mxGeometry x="475.00000000000006" y="3710" width="30" height="30" as="geometry" />
        </mxCell>
        <mxCell id="kRMHfiHr7dQ66X-y3se4-20" value="&lt;div&gt;S3 managed&lt;/div&gt;&lt;div&gt;encryption&lt;br&gt;&lt;/div&gt;" style="sketch=0;outlineConnect=0;fontColor=#232F3E;gradientColor=none;fillColor=#BF0816;strokeColor=none;dashed=0;verticalLabelPosition=middle;verticalAlign=middle;align=left;html=1;fontSize=12;fontStyle=0;aspect=fixed;pointerEvents=1;shape=mxgraph.aws4.data_encryption_key;labelPosition=right;spacingRight=4;spacingLeft=5;" vertex="1" parent="1">
          <mxGeometry x="480" y="3744" width="20" height="25.16" as="geometry" />
        </mxCell>
        <mxCell id="kRMHfiHr7dQ66X-y3se4-21" value="AccessLogsBucket" style="text;html=1;strokeColor=none;fillColor=none;align=center;verticalAlign=middle;whiteSpace=wrap;rounded=0;fontStyle=1;strokeWidth=3;" vertex="1" parent="1">
          <mxGeometry x="393.5" y="3680" width="205" height="30" as="geometry" />
        </mxCell>
        <mxCell id="kRMHfiHr7dQ66X-y3se4-24" value="DataLakeStorage" style="text;html=1;strokeColor=none;fillColor=none;align=center;verticalAlign=middle;whiteSpace=wrap;rounded=0;fontStyle=1" vertex="1" parent="1">
          <mxGeometry x="317.11" y="3430" width="160" height="30" as="geometry" />
        </mxCell>
        <mxCell id="kRMHfiHr7dQ66X-y3se4-25" value="gold" style="sketch=0;outlineConnect=0;fontColor=#232F3E;gradientColor=none;fillColor=#3F8624;strokeColor=none;dashed=0;verticalLabelPosition=bottom;verticalAlign=top;align=center;html=1;fontSize=12;fontStyle=0;aspect=fixed;pointerEvents=1;shape=mxgraph.aws4.bucket;" vertex="1" parent="1">
          <mxGeometry x="393.5" y="3477" width="61.5" height="64" as="geometry" />
        </mxCell>
        <mxCell id="kRMHfiHr7dQ66X-y3se4-26" value="access-logs" style="sketch=0;outlineConnect=0;fontColor=#232F3E;gradientColor=none;fillColor=#CC0000;strokeColor=none;dashed=0;verticalLabelPosition=bottom;verticalAlign=top;align=center;html=1;fontSize=12;fontStyle=0;aspect=fixed;pointerEvents=1;shape=mxgraph.aws4.bucket;" vertex="1" parent="1">
          <mxGeometry x="505" y="3483" width="61.5" height="64" as="geometry" />
        </mxCell>
        <mxCell id="kRMHfiHr7dQ66X-y3se4-28" value="&lt;div&gt;Enforced SSL&lt;/div&gt;" style="sketch=0;outlineConnect=0;fontColor=#232F3E;gradientColor=none;strokeColor=#232F3E;fillColor=#ffffff;dashed=0;verticalLabelPosition=middle;verticalAlign=middle;align=left;html=1;fontSize=12;fontStyle=0;aspect=fixed;shape=mxgraph.aws4.resourceIcon;resIcon=mxgraph.aws4.ssl_padlock;labelPosition=right;spacingLeft=0;" vertex="1" parent="1">
          <mxGeometry x="331.50000000000006" y="3582.61" width="30" height="30" as="geometry" />
        </mxCell>
        <mxCell id="kRMHfiHr7dQ66X-y3se4-37" style="edgeStyle=orthogonalEdgeStyle;rounded=0;orthogonalLoop=1;jettySize=auto;html=1;sourcePerimeterSpacing=63;" edge="1" parent="1" source="kRMHfiHr7dQ66X-y3se4-29" target="kRMHfiHr7dQ66X-y3se4-36">
          <mxGeometry relative="1" as="geometry" />
        </mxCell>
        <mxCell id="kRMHfiHr7dQ66X-y3se4-29" value="&lt;div style=&quot;font-size: 12px;&quot;&gt;Infrequent&lt;/div&gt;&lt;div style=&quot;font-size: 12px;&quot;&gt;Access&lt;br style=&quot;font-size: 12px;&quot;&gt;&lt;/div&gt;" style="sketch=0;points=[[0,0,0],[0.25,0,0],[0.5,0,0],[0.75,0,0],[1,0,0],[0,1,0],[0.25,1,0],[0.5,1,0],[0.75,1,0],[1,1,0],[0,0.25,0],[0,0.5,0],[0,0.75,0],[1,0.25,0],[1,0.5,0],[1,0.75,0]];outlineConnect=0;fontColor=#232F3E;gradientColor=#60A337;gradientDirection=north;fillColor=#277116;strokeColor=#ffffff;dashed=0;verticalLabelPosition=middle;verticalAlign=middle;align=left;html=1;fontSize=12;fontStyle=0;aspect=fixed;shape=mxgraph.aws4.resourceIcon;resIcon=mxgraph.aws4.infrequent_access_storage_class;labelPosition=right;spacingLeft=4;" vertex="1" parent="1">
          <mxGeometry x="321.11" y="3633.4" width="30" height="30" as="geometry" />
        </mxCell>
        <mxCell id="kRMHfiHr7dQ66X-y3se4-33" style="edgeStyle=orthogonalEdgeStyle;rounded=0;orthogonalLoop=1;jettySize=auto;html=1;sourcePerimeterSpacing=6;endSize=8;" edge="1" parent="1" source="kRMHfiHr7dQ66X-y3se4-30" target="kRMHfiHr7dQ66X-y3se4-29">
          <mxGeometry relative="1" as="geometry" />
        </mxCell>
        <mxCell id="kRMHfiHr7dQ66X-y3se4-34" value="&lt;div&gt;90&lt;/div&gt;&lt;div&gt;days&lt;/div&gt;" style="edgeLabel;html=1;align=center;verticalAlign=middle;resizable=0;points=[];fontSize=10;labelBackgroundColor=none;" vertex="1" connectable="0" parent="kRMHfiHr7dQ66X-y3se4-33">
          <mxGeometry x="0.2007" y="2" relative="1" as="geometry">
            <mxPoint x="-13" y="1" as="offset" />
          </mxGeometry>
        </mxCell>
        <mxCell id="kRMHfiHr7dQ66X-y3se4-30" value="" style="sketch=0;outlineConnect=0;fontColor=#232F3E;gradientColor=none;fillColor=#3F8624;strokeColor=none;dashed=0;verticalLabelPosition=bottom;verticalAlign=top;align=center;html=1;fontSize=12;fontStyle=0;aspect=fixed;pointerEvents=1;shape=mxgraph.aws4.bucket;" vertex="1" parent="1">
          <mxGeometry x="213" y="3632.19" width="30" height="31.21" as="geometry" />
        </mxCell>
        <mxCell id="kRMHfiHr7dQ66X-y3se4-36" value="Glacier" style="sketch=0;points=[[0,0,0],[0.25,0,0],[0.5,0,0],[0.75,0,0],[1,0,0],[0,1,0],[0.25,1,0],[0.5,1,0],[0.75,1,0],[1,1,0],[0,0.25,0],[0,0.5,0],[0,0.75,0],[1,0.25,0],[1,0.5,0],[1,0.75,0]];outlineConnect=0;fontColor=#232F3E;gradientColor=#60A337;gradientDirection=north;fillColor=#277116;strokeColor=#ffffff;dashed=0;verticalLabelPosition=middle;verticalAlign=middle;align=left;html=1;fontSize=12;fontStyle=0;aspect=fixed;shape=mxgraph.aws4.resourceIcon;resIcon=mxgraph.aws4.glacier;labelPosition=right;spacingLeft=4;" vertex="1" parent="1">
          <mxGeometry x="503" y="3633.4" width="30" height="30" as="geometry" />
        </mxCell>
        <mxCell id="kRMHfiHr7dQ66X-y3se4-38" value="&lt;div&gt;180&lt;/div&gt;&lt;div&gt;days&lt;/div&gt;" style="edgeLabel;html=1;align=center;verticalAlign=middle;resizable=0;points=[];fontSize=10;labelBackgroundColor=none;" vertex="1" connectable="0" parent="1">
          <mxGeometry x="294.00424242424225" y="3655.4242424242425" as="geometry">
            <mxPoint x="162" y="-8" as="offset" />
          </mxGeometry>
        </mxCell>
        <mxCell id="kRMHfiHr7dQ66X-y3se4-40" value="&lt;div&gt;Public access&lt;/div&gt;&lt;div&gt;blocked&lt;br&gt;&lt;/div&gt;" style="verticalLabelPosition=middle;html=1;verticalAlign=middle;align=left;strokeColor=#666666;fillColor=#f5f5f5;shape=mxgraph.azure.virtual_machine_feature;pointerEvents=1;fontColor=#333333;labelPosition=right;spacingLeft=4;" vertex="1" parent="1">
          <mxGeometry x="480" y="3587.61" width="20" height="20" as="geometry" />
        </mxCell>
        <mxCell id="kRMHfiHr7dQ66X-y3se4-41" value="&lt;div&gt;Public access&lt;/div&gt;&lt;div&gt;blocked&lt;br&gt;&lt;/div&gt;" style="verticalLabelPosition=middle;html=1;verticalAlign=middle;align=left;strokeColor=#666666;fillColor=#f5f5f5;shape=mxgraph.azure.virtual_machine_feature;pointerEvents=1;fontColor=#333333;labelPosition=right;spacingLeft=4;" vertex="1" parent="1">
          <mxGeometry x="280" y="3782" width="20" height="20" as="geometry" />
        </mxCell>
        <mxCell id="kRMHfiHr7dQ66X-y3se4-42" value="&lt;div&gt;Public access&lt;/div&gt;&lt;div&gt;blocked&lt;br&gt;&lt;/div&gt;" style="verticalLabelPosition=middle;html=1;verticalAlign=middle;align=left;strokeColor=#666666;fillColor=#f5f5f5;shape=mxgraph.azure.virtual_machine_feature;pointerEvents=1;fontColor=#333333;labelPosition=right;spacingLeft=4;" vertex="1" parent="1">
          <mxGeometry x="480" y="3782" width="20" height="20" as="geometry" />
        </mxCell>
      </root>
    </mxGraphModel>
  </diagram>
  <diagram id="Vlrb12W_S6oZ7JnPwWX3" name="adsf-data-catalog">
    <mxGraphModel dx="1578" dy="-2245" grid="1" gridSize="10" guides="1" tooltips="1" connect="1" arrows="1" fold="1" page="1" pageScale="1" pageWidth="850" pageHeight="1100" math="0" shadow="0">
      <root>
        <mxCell id="0" />
        <mxCell id="1" parent="0" />
        <mxCell id="nHiqci7y5wepmIj_4Yfp-1" value="" style="rounded=0;whiteSpace=wrap;html=1;labelBackgroundColor=none;labelBorderColor=none;strokeColor=#00994D;strokeWidth=2;fontSize=12;fontColor=#000000;fillColor=none;verticalAlign=top;" vertex="1" parent="1">
          <mxGeometry x="230" y="3370" width="390" height="240" as="geometry" />
        </mxCell>
        <mxCell id="nHiqci7y5wepmIj_4Yfp-2" value="" style="rounded=0;whiteSpace=wrap;html=1;fillColor=none;strokeColor=#4c27aa;strokeWidth=2;" vertex="1" parent="1">
          <mxGeometry x="240" y="3403.08" width="230" height="196.92" as="geometry" />
        </mxCell>
        <mxCell id="nHiqci7y5wepmIj_4Yfp-3" value="DataCatalogDatabase" style="text;html=1;strokeColor=none;fillColor=none;align=center;verticalAlign=middle;whiteSpace=wrap;rounded=0;fontStyle=1" vertex="1" parent="1">
          <mxGeometry x="345" y="3370" width="160" height="30" as="geometry" />
        </mxCell>
        <mxCell id="nHiqci7y5wepmIj_4Yfp-4" value="Glue Data Catalog" style="sketch=0;outlineConnect=0;fontColor=#232F3E;gradientColor=none;fillColor=#4D27AA;strokeColor=none;dashed=0;verticalLabelPosition=middle;verticalAlign=top;align=left;html=1;fontSize=12;fontStyle=0;aspect=fixed;pointerEvents=1;shape=mxgraph.aws4.glue_data_catalog;labelPosition=right;spacingBottom=0;spacingTop=-2;spacingLeft=7;" vertex="1" parent="1">
          <mxGeometry x="247" y="3410" width="30" height="32.5" as="geometry" />
        </mxCell>
        <mxCell id="nHiqci7y5wepmIj_4Yfp-5" style="edgeStyle=orthogonalEdgeStyle;rounded=0;orthogonalLoop=1;jettySize=auto;html=1;strokeWidth=2;" edge="1" parent="1" source="nHiqci7y5wepmIj_4Yfp-7" target="nHiqci7y5wepmIj_4Yfp-12">
          <mxGeometry relative="1" as="geometry" />
        </mxCell>
        <mxCell id="nHiqci7y5wepmIj_4Yfp-6" style="edgeStyle=orthogonalEdgeStyle;rounded=0;orthogonalLoop=1;jettySize=auto;html=1;strokeWidth=2;targetPerimeterSpacing=2;sourcePerimeterSpacing=14;" edge="1" parent="1" source="nHiqci7y5wepmIj_4Yfp-7" target="nHiqci7y5wepmIj_4Yfp-10">
          <mxGeometry relative="1" as="geometry" />
        </mxCell>
        <mxCell id="nHiqci7y5wepmIj_4Yfp-7" value="Crawler" style="sketch=0;outlineConnect=0;fontColor=#232F3E;gradientColor=none;fillColor=#4D27AA;strokeColor=none;dashed=0;verticalLabelPosition=bottom;verticalAlign=top;align=center;html=1;fontSize=12;fontStyle=0;aspect=fixed;pointerEvents=1;shape=mxgraph.aws4.glue_crawlers;spacingTop=-6;" vertex="1" parent="1">
          <mxGeometry x="520" y="3450.1800000000003" width="50" height="50" as="geometry" />
        </mxCell>
        <mxCell id="nHiqci7y5wepmIj_4Yfp-8" value="&lt;div&gt;CfnDatabase&lt;/div&gt;&lt;div&gt;(Level 1 construct)&lt;/div&gt;" style="rounded=0;whiteSpace=wrap;html=1;fillColor=#fad9d5;strokeColor=#ae4132;fontSize=14;dashed=1;strokeWidth=2;" vertex="1" parent="1">
          <mxGeometry x="230" y="3624" width="190" height="60" as="geometry" />
        </mxCell>
        <mxCell id="nHiqci7y5wepmIj_4Yfp-9" value="&lt;div&gt;CfnCrawler&lt;/div&gt;&lt;div&gt;(Level 1 construct)&lt;/div&gt;" style="rounded=0;whiteSpace=wrap;html=1;fillColor=#fad9d5;strokeColor=#ae4132;fontSize=14;dashed=1;strokeWidth=2;" vertex="1" parent="1">
          <mxGeometry x="430" y="3624" width="190" height="60" as="geometry" />
        </mxCell>
        <mxCell id="nHiqci7y5wepmIj_4Yfp-10" value="Location bucket" style="sketch=0;outlineConnect=0;fontColor=#232F3E;gradientColor=none;fillColor=#3f8624;strokeColor=none;dashed=1;verticalLabelPosition=bottom;verticalAlign=top;align=center;html=1;fontSize=12;fontStyle=0;aspect=fixed;pointerEvents=1;shape=mxgraph.aws4.bucket;fillStyle=auto;" vertex="1" parent="1">
          <mxGeometry x="525" y="3540" width="40" height="41.63" as="geometry" />
        </mxCell>
        <mxCell id="nHiqci7y5wepmIj_4Yfp-11" value="" style="rounded=0;whiteSpace=wrap;html=1;fillColor=none;strokeColor=#4d27aa;dashed=1;" vertex="1" parent="1">
          <mxGeometry x="250" y="3490" width="210" height="100" as="geometry" />
        </mxCell>
        <mxCell id="nHiqci7y5wepmIj_4Yfp-12" value="Database" style="html=1;verticalLabelPosition=bottom;align=center;labelBackgroundColor=#ffffff;verticalAlign=top;strokeWidth=2;strokeColor=#4D27AA;shadow=0;dashed=0;shape=mxgraph.ios7.icons.data;rounded=1;labelBorderColor=#FFFFFF;fontSize=12;fontColor=#000000;fillColor=default;gradientColor=none;labelPosition=center;spacingLeft=4;aspect=fixed;" vertex="1" parent="1">
          <mxGeometry x="330" y="3450" width="50" height="50.18" as="geometry" />
        </mxCell>
        <mxCell id="nHiqci7y5wepmIj_4Yfp-13" value="" style="sketch=0;outlineConnect=0;fontColor=#232F3E;gradientColor=none;fillColor=#A3A3A3;strokeColor=none;dashed=0;verticalLabelPosition=bottom;verticalAlign=top;align=center;html=1;fontSize=12;fontStyle=0;aspect=fixed;pointerEvents=1;shape=mxgraph.aws4.table;" vertex="1" parent="1">
          <mxGeometry x="285" y="3534.41" width="37.78" height="37.78" as="geometry" />
        </mxCell>
        <mxCell id="nHiqci7y5wepmIj_4Yfp-14" value="" style="sketch=0;outlineConnect=0;fontColor=#232F3E;gradientColor=none;fillColor=#A3A3A3;strokeColor=none;dashed=0;verticalLabelPosition=bottom;verticalAlign=top;align=center;html=1;fontSize=12;fontStyle=0;aspect=fixed;pointerEvents=1;shape=mxgraph.aws4.table;" vertex="1" parent="1">
          <mxGeometry x="335" y="3534.41" width="37.78" height="37.78" as="geometry" />
        </mxCell>
        <mxCell id="nHiqci7y5wepmIj_4Yfp-15" value="" style="sketch=0;outlineConnect=0;fontColor=#232F3E;gradientColor=none;fillColor=#A3A3A3;strokeColor=none;dashed=0;verticalLabelPosition=bottom;verticalAlign=top;align=center;html=1;fontSize=12;fontStyle=0;aspect=fixed;pointerEvents=1;shape=mxgraph.aws4.table;" vertex="1" parent="1">
          <mxGeometry x="385" y="3534.41" width="37.78" height="37.78" as="geometry" />
        </mxCell>
      </root>
    </mxGraphModel>
  </diagram>
  <diagram id="i7HBYi7g8EeDxkwGBpo9" name="adsf-spark-runtime">
    <mxGraphModel dx="176" dy="-2614" grid="1" gridSize="10" guides="1" tooltips="1" connect="1" arrows="1" fold="1" page="1" pageScale="1" pageWidth="850" pageHeight="1100" math="0" shadow="0">
      <root>
        <mxCell id="0" />
        <mxCell id="1" parent="0" />
        <mxCell id="0DlgXOf5-Aflz_P1ptAj-1" value="" style="rounded=0;whiteSpace=wrap;html=1;labelBackgroundColor=none;labelBorderColor=none;strokeColor=#00994D;strokeWidth=2;fontSize=12;fontColor=#000000;fillColor=none;verticalAlign=top;" vertex="1" parent="1">
          <mxGeometry x="1040" y="3340" width="390" height="240" as="geometry" />
        </mxCell>
        <mxCell id="0DlgXOf5-Aflz_P1ptAj-2" value="SparkRuntimeServerless" style="text;html=1;strokeColor=none;fillColor=none;align=center;verticalAlign=middle;whiteSpace=wrap;rounded=0;fontStyle=1" vertex="1" parent="1">
          <mxGeometry x="1155" y="3340" width="160" height="30" as="geometry" />
        </mxCell>
        <mxCell id="0DlgXOf5-Aflz_P1ptAj-3" value="&lt;div&gt;CfnApplication&lt;/div&gt;&lt;div&gt;(Level 1 construct)&lt;/div&gt;" style="rounded=0;whiteSpace=wrap;html=1;fillColor=#fad9d5;strokeColor=#ae4132;fontSize=14;dashed=1;strokeWidth=2;" vertex="1" parent="1">
          <mxGeometry x="1040" y="3594" width="390" height="60" as="geometry" />
        </mxCell>
        <mxCell id="0DlgXOf5-Aflz_P1ptAj-4" value="&lt;div&gt;Spark EMR Serverless&lt;/div&gt;&lt;div&gt;Application&lt;br&gt;&lt;/div&gt;" style="sketch=0;points=[[0,0,0],[0.25,0,0],[0.5,0,0],[0.75,0,0],[1,0,0],[0,1,0],[0.25,1,0],[0.5,1,0],[0.75,1,0],[1,1,0],[0,0.25,0],[0,0.5,0],[0,0.75,0],[1,0.25,0],[1,0.5,0],[1,0.75,0]];outlineConnect=0;fontColor=#232F3E;gradientColor=#945DF2;gradientDirection=north;fillColor=#5A30B5;strokeColor=#ffffff;dashed=0;verticalLabelPosition=bottom;verticalAlign=top;align=center;html=1;fontSize=12;fontStyle=0;aspect=fixed;shape=mxgraph.aws4.resourceIcon;resIcon=mxgraph.aws4.emr;" vertex="1" parent="1">
          <mxGeometry x="1090" y="3373" width="50" height="50" as="geometry" />
        </mxCell>
        <mxCell id="0DlgXOf5-Aflz_P1ptAj-5" value="CreateExecutionRole" style="rounded=0;whiteSpace=wrap;html=1;fillColor=none;labelPosition=center;verticalLabelPosition=top;align=center;verticalAlign=bottom;spacingTop=0;spacingBottom=-23;strokeWidth=2;dashed=1;strokeColor=#919191;" vertex="1" parent="1">
          <mxGeometry x="1200" y="3373" width="210" height="87" as="geometry" />
        </mxCell>
        <mxCell id="0DlgXOf5-Aflz_P1ptAj-6" value="grantJobExecution" style="rounded=0;whiteSpace=wrap;html=1;labelPosition=center;verticalLabelPosition=top;align=center;verticalAlign=bottom;spacingTop=0;spacingBottom=-23;strokeWidth=2;dashed=1;strokeColor=#919191;fillColor=none;" vertex="1" parent="1">
          <mxGeometry x="1200" y="3480" width="120" height="90" as="geometry" />
        </mxCell>
        <mxCell id="0DlgXOf5-Aflz_P1ptAj-7" value="Policy" style="sketch=0;outlineConnect=0;fontColor=#232F3E;gradientColor=none;fillColor=#3F8624;strokeColor=none;dashed=0;verticalLabelPosition=bottom;verticalAlign=top;align=center;html=1;fontSize=12;fontStyle=0;aspect=fixed;pointerEvents=1;shape=mxgraph.aws4.policy;spacingBottom=0;spacingTop=-4;" vertex="1" parent="1">
          <mxGeometry x="1240" y="3401.82" width="40" height="34.36" as="geometry" />
        </mxCell>
        <mxCell id="0DlgXOf5-Aflz_P1ptAj-8" style="edgeStyle=orthogonalEdgeStyle;rounded=0;orthogonalLoop=1;jettySize=auto;html=1;strokeWidth=2;targetPerimeterSpacing=2;" edge="1" parent="1" source="0DlgXOf5-Aflz_P1ptAj-10" target="0DlgXOf5-Aflz_P1ptAj-7">
          <mxGeometry relative="1" as="geometry" />
        </mxCell>
        <mxCell id="0DlgXOf5-Aflz_P1ptAj-9" style="edgeStyle=orthogonalEdgeStyle;rounded=0;orthogonalLoop=1;jettySize=auto;html=1;strokeWidth=2;sourcePerimeterSpacing=20;" edge="1" parent="1" source="0DlgXOf5-Aflz_P1ptAj-10" target="0DlgXOf5-Aflz_P1ptAj-12">
          <mxGeometry relative="1" as="geometry">
            <Array as="points">
              <mxPoint x="1340" y="3535" />
            </Array>
          </mxGeometry>
        </mxCell>
        <mxCell id="0DlgXOf5-Aflz_P1ptAj-10" value="Execution role" style="sketch=0;outlineConnect=0;fontColor=#232F3E;gradientColor=none;fillColor=#BF0816;strokeColor=none;dashed=0;verticalLabelPosition=bottom;verticalAlign=top;align=center;html=1;fontSize=12;fontStyle=0;aspect=fixed;pointerEvents=1;shape=mxgraph.aws4.role;" vertex="1" parent="1">
          <mxGeometry x="1315" y="3404.9" width="50" height="28.2" as="geometry" />
        </mxCell>
        <mxCell id="0DlgXOf5-Aflz_P1ptAj-11" style="edgeStyle=orthogonalEdgeStyle;rounded=0;orthogonalLoop=1;jettySize=auto;html=1;strokeWidth=2;targetPerimeterSpacing=35;" edge="1" parent="1" source="0DlgXOf5-Aflz_P1ptAj-12" target="0DlgXOf5-Aflz_P1ptAj-4">
          <mxGeometry relative="1" as="geometry" />
        </mxCell>
        <mxCell id="0DlgXOf5-Aflz_P1ptAj-12" value="" style="sketch=0;outlineConnect=0;fontColor=#232F3E;gradientColor=none;fillColor=#BF0816;strokeColor=none;dashed=0;verticalLabelPosition=bottom;verticalAlign=top;align=center;html=1;fontSize=12;fontStyle=0;aspect=fixed;pointerEvents=1;shape=mxgraph.aws4.permissions;" vertex="1" parent="1">
          <mxGeometry x="1240" y="3509.68" width="40" height="50.32" as="geometry" />
        </mxCell>
      </root>
    </mxGraphModel>
  </diagram>
</mxfile>
